<?xml version="1.0" standalone="no"?>
<!DOCTYPE svg PUBLIC "-//W3C//DTD SVG 20010904//EN"
 "http://www.w3.org/TR/2001/REC-SVG-20010904/DTD/svg10.dtd">
<svg version="1.0" xmlns="http://www.w3.org/2000/svg"
 width="227.000000pt" height="227.000000pt" viewBox="0 0 227.000000 227.000000"
 preserveAspectRatio="xMidYMid meet">
<metadata>
Created by potrace 1.14, written by Peter Selinger 2001-2017
</metadata>
<g transform="translate(0.000000,227.000000) scale(0.100000,-0.100000)"
fill="#000000" stroke="none">
<path d="M1347 2178 c-20 -24 -60 -70 -91 -103 -44 -49 -52 -63 -44 -78 14
-26 81 -90 138 -131 l48 -34 33 24 c19 13 66 58 104 101 l69 76 -99 94 c-54
51 -104 93 -111 93 -6 0 -28 -19 -47 -42z"/>
<path d="M991 2013 c6 -107 52 -210 135 -302 98 -109 197 -153 344 -154 122 0
225 23 325 72 93 46 182 108 190 133 10 29 -32 94 -140 216 -9 10 -28 1 -92
-47 -146 -109 -258 -149 -382 -137 -119 11 -258 102 -332 216 -18 28 -36 50
-41 50 -5 0 -8 -21 -7 -47z"/>
<path d="M650 1776 c-84 -19 -160 -46 -217 -77 -66 -36 -154 -99 -149 -107 2
-4 35 -62 74 -128 l71 -121 88 43 c162 79 290 111 361 92 51 -14 111 -75 119
-120 5 -31 1 -43 -27 -78 -58 -73 -147 -102 -294 -94 -49 3 -92 7 -96 9 -3 2
-11 1 -17 -3 -23 -14 27 -159 90 -263 l40 -66 96 0 c148 0 207 -36 246 -149
40 -118 -14 -244 -130 -301 -166 -82 -463 -31 -581 101 -57 62 -134 219 -173
351 -16 55 -34 114 -41 130 -10 28 -12 29 -22 11 -14 -25 -3 -228 16 -320 41
-183 147 -375 262 -473 129 -109 246 -154 399 -155 162 -1 232 27 338 133 107
107 150 220 146 383 -3 100 -14 155 -50 234 -15 34 -25 62 -21 63 4 0 57 2
119 3 105 2 114 4 148 30 47 36 114 121 173 219 87 146 161 203 251 193 95
-10 124 -36 157 -141 22 -68 27 -226 10 -292 -45 -169 -198 -302 -357 -309
-86 -4 -130 10 -185 59 -49 43 -73 81 -90 142 l-11 40 -14 -30 c-30 -68 -7
-271 42 -368 41 -79 133 -158 203 -173 147 -32 283 3 376 96 60 60 73 77 103
141 93 199 110 471 41 683 -44 137 -138 262 -241 323 -45 27 -54 28 -168 28
-111 0 -124 -2 -176 -27 -87 -43 -135 -102 -239 -291 -61 -111 -108 -170 -153
-193 -40 -21 -114 -14 -187 18 l-54 24 46 32 c97 67 188 250 183 367 -6 135
-94 274 -205 322 -47 21 -227 26 -300 9z"/>
</g>
</svg>
