<?xml version="1.0" standalone="no"?>
<!DOCTYPE svg PUBLIC "-//W3C//DTD SVG 20010904//EN"
 "http://www.w3.org/TR/2001/REC-SVG-20010904/DTD/svg10.dtd">
<svg version="1.0" xmlns="http://www.w3.org/2000/svg"
 width="1350.000000pt" height="1335.000000pt" viewBox="0 0 1350.000000 1335.000000"
 preserveAspectRatio="xMidYMid meet">
<metadata>
Created by potrace 1.10, written by Peter Selinger 2001-2011
</metadata>
<g transform="translate(0.000000,1335.000000) scale(0.100000,-0.100000)"
fill="#ffffff" stroke="none">
<path d="M6726 13238 c-13 -46 -40 -115 -50 -127 -12 -15 -32 -48 -42 -71 -23
-47 -191 -228 -259 -278 -16 -12 -60 -44 -97 -72 -37 -27 -69 -50 -72 -50 -3
0 -33 -19 -68 -43 -35 -24 -70 -46 -78 -50 -8 -4 -28 -16 -45 -27 -16 -10 -52
-31 -80 -45 -27 -14 -63 -35 -80 -45 -16 -11 -39 -24 -50 -30 -11 -6 -33 -19
-50 -30 -16 -11 -37 -22 -45 -26 -8 -3 -22 -10 -30 -15 -8 -5 -24 -14 -35 -19
-11 -6 -33 -19 -50 -30 -16 -11 -39 -24 -50 -29 -11 -5 -37 -21 -58 -35 -21
-14 -42 -26 -47 -26 -4 0 -10 -3 -12 -7 -4 -10 -65 -53 -74 -53 -3 0 -25 -14
-48 -32 -144 -113 -293 -269 -321 -338 -4 -8 -10 -22 -15 -30 -21 -34 -50
-104 -50 -119 0 -9 -7 -34 -15 -56 -17 -48 -20 -211 -4 -252 6 -15 14 -48 19
-73 8 -45 21 -84 49 -152 17 -41 42 -48 75 -23 11 8 28 15 37 15 10 0 30 6 46
14 64 32 150 64 203 75 19 4 45 13 57 19 12 7 32 12 44 12 11 0 42 7 68 14 79
25 153 44 236 61 44 9 98 21 120 27 22 5 69 13 105 17 36 5 97 13 135 20 180
29 373 41 667 41 167 -1 337 -5 378 -10 41 -6 122 -14 180 -19 58 -5 121 -14
140 -20 19 -6 53 -11 76 -11 23 0 61 -7 84 -15 23 -8 60 -15 82 -15 21 0 55
-7 75 -15 19 -8 48 -15 64 -15 15 0 40 -5 56 -11 15 -6 44 -15 63 -19 19 -5
49 -13 65 -18 17 -6 77 -25 135 -43 58 -17 120 -38 138 -46 84 -34 99 -41 132
-53 64 -23 89 -24 96 -4 3 11 12 35 19 54 43 117 72 289 61 367 -14 97 -24
149 -38 183 -43 110 -115 215 -205 301 -80 77 -276 217 -389 279 -21 12 -52
30 -69 41 -16 10 -37 22 -45 25 -8 3 -19 8 -25 10 -5 2 -23 13 -40 24 -16 10
-52 31 -80 45 -27 14 -63 35 -80 45 -16 11 -34 22 -40 24 -5 2 -17 7 -25 10
-8 3 -28 15 -45 26 -16 11 -41 25 -55 31 -14 5 -38 21 -55 33 -16 12 -37 26
-45 29 -33 16 -153 98 -158 110 -2 4 -8 7 -14 7 -14 0 -169 131 -216 182 -20
23 -44 48 -53 57 -17 18 -97 125 -116 156 -21 35 -63 123 -63 134 0 16 -20 24
-24 9z"/>
<path d="M3870 11513 c-41 -8 -93 -19 -115 -24 -22 -6 -51 -12 -65 -15 -23 -5
-69 -17 -180 -49 -25 -7 -72 -20 -105 -30 -33 -9 -73 -21 -90 -27 -16 -5 -46
-13 -66 -17 -19 -4 -42 -12 -49 -16 -8 -5 -32 -12 -55 -16 -51 -10 -122 -28
-160 -41 -16 -6 -55 -14 -85 -18 -30 -5 -75 -13 -100 -19 -79 -18 -257 -41
-322 -41 -35 0 -90 5 -123 11 -33 6 -80 14 -105 18 -25 4 -55 13 -67 19 -12 7
-33 12 -47 12 -13 0 -38 8 -55 17 -39 23 -48 12 -28 -37 66 -157 71 -187 71
-390 1 -175 -4 -229 -36 -360 -6 -25 -14 -65 -19 -90 -9 -52 -17 -85 -74 -295
-9 -30 -22 -81 -31 -112 -9 -32 -20 -71 -26 -88 -6 -16 -13 -50 -17 -75 -4
-25 -13 -55 -19 -67 -7 -12 -12 -32 -12 -44 0 -12 -6 -45 -14 -73 -35 -126
-47 -224 -47 -405 1 -183 6 -221 46 -316 7 -16 16 -37 19 -45 3 -8 15 -28 26
-45 11 -16 24 -39 29 -50 12 -25 123 -128 184 -172 25 -18 74 -46 108 -64 35
-17 76 -38 92 -46 29 -15 47 -11 47 13 0 25 124 286 195 409 19 33 38 67 42
75 3 8 18 33 32 55 38 59 49 78 58 95 4 8 27 44 52 80 24 36 61 90 82 120 129
191 294 385 519 610 212 212 285 278 424 387 44 35 87 68 95 75 36 30 102 78
107 78 3 0 32 20 64 45 32 25 61 45 64 45 4 0 25 14 48 30 22 17 45 30 51 30
5 0 26 14 47 30 21 17 45 30 54 30 9 0 16 4 16 8 0 4 24 20 53 35 69 37 79 42
102 55 11 7 27 15 35 18 8 3 22 10 30 15 8 5 24 13 35 18 11 5 59 27 108 50
48 22 92 41 97 41 5 0 24 7 43 16 l34 16 -48 94 c-26 52 -59 110 -73 129 -14
18 -26 37 -26 42 0 11 -126 133 -170 164 -55 39 -159 85 -232 103 -84 20 -340
20 -448 -1z"/>
<path d="M9170 11515 c-19 -7 -45 -14 -57 -14 -31 -1 -137 -57 -203 -107 -50
-38 -150 -138 -150 -150 0 -5 -40 -64 -50 -74 -3 -3 -14 -23 -25 -45 -10 -22
-24 -46 -29 -54 -6 -7 -16 -29 -23 -49 -10 -31 -10 -37 5 -49 9 -7 28 -16 42
-19 39 -9 311 -141 415 -200 33 -19 69 -39 80 -45 36 -18 59 -33 179 -114 65
-44 125 -84 135 -90 44 -27 252 -190 361 -284 41 -36 154 -144 251 -240 151
-152 226 -233 339 -367 39 -47 173 -225 210 -279 19 -27 58 -86 88 -130 30
-44 58 -89 63 -100 5 -11 18 -33 29 -50 11 -16 24 -39 30 -50 6 -11 26 -47 44
-80 75 -134 196 -386 196 -410 0 -23 18 -27 47 -12 16 8 57 29 93 47 36 18 81
45 101 61 20 16 41 29 46 29 5 0 16 8 24 18 9 9 27 26 40 37 69 59 141 177
176 290 24 75 30 424 9 506 -9 33 -16 77 -16 97 -1 20 -7 48 -15 62 -8 14 -14
38 -15 54 0 15 -7 50 -15 77 -8 27 -22 71 -30 98 -8 27 -15 59 -15 70 0 12 -5
32 -12 44 -6 12 -15 40 -19 62 -4 22 -11 54 -17 70 -30 89 -42 133 -42 160 -1
17 -7 41 -15 55 -8 14 -14 39 -15 55 0 17 -6 50 -14 75 -27 85 -39 185 -43
359 -4 139 -1 184 11 222 9 26 16 57 16 68 0 10 7 33 15 50 8 17 22 45 30 62
8 17 15 37 15 45 0 19 -34 18 -50 -1 -7 -8 -23 -15 -36 -15 -12 0 -35 -5 -51
-11 -49 -19 -235 -49 -310 -49 -39 0 -107 7 -150 15 -43 8 -95 15 -116 15 -21
0 -54 7 -74 15 -19 8 -53 15 -75 15 -22 0 -49 5 -61 12 -12 6 -40 15 -62 19
-60 12 -156 36 -195 49 -19 7 -48 16 -65 22 -16 5 -46 14 -65 18 -84 21 -127
33 -158 46 -18 8 -43 14 -55 14 -12 1 -33 7 -47 15 -14 8 -39 14 -56 15 -17 0
-48 7 -67 15 -20 8 -53 15 -74 15 -21 1 -65 7 -98 15 -79 19 -355 19 -405 0z"/>
<path d="M6233 10986 c-67 -6 -127 -16 -132 -21 -6 -6 -7 -30 -3 -60 l7 -50
75 -5 75 -5 7 -135 c4 -74 13 -193 21 -265 l13 -130 69 3 c100 5 100 5 87 154
-6 68 -13 184 -14 258 l-3 135 65 8 c35 4 67 12 70 17 3 5 3 31 0 57 l-5 48
-105 1 c-58 1 -160 -3 -227 -10z"/>
<path d="M6675 10958 c-4 -24 -5 -152 -3 -285 l3 -241 31 -39 c109 -135 359
-95 405 65 10 34 14 115 14 292 l0 245 -65 0 -65 0 -7 -45 c-3 -25 -7 -138 -7
-251 -1 -193 -2 -208 -22 -233 -26 -33 -70 -35 -99 -4 -11 12 -21 27 -22 32
-1 6 -2 121 -3 256 l0 245 -77 3 -77 3 -6 -43z"/>
<path d="M7320 10951 c-5 -11 -10 -35 -10 -53 0 -18 -6 -69 -14 -113 -8 -44
-22 -127 -31 -185 -9 -58 -23 -145 -32 -194 -12 -66 -13 -90 -4 -95 6 -4 41
-13 78 -21 61 -12 67 -11 80 6 7 10 13 36 14 58 0 23 8 77 18 121 16 73 20 80
41 80 23 0 25 -6 41 -105 10 -58 18 -121 18 -141 1 -20 7 -41 14 -47 17 -14
144 -26 151 -14 3 6 2 32 -3 59 -53 268 -53 255 -2 284 55 31 82 71 88 134 7
67 -23 137 -71 163 -50 27 -128 51 -171 52 -22 0 -67 7 -100 15 -79 19 -92 19
-105 -4z m235 -154 c46 -26 56 -61 29 -101 -14 -23 -23 -26 -71 -26 l-55 0 4
66 c6 89 23 100 93 61z"/>
<path d="M5683 10880 c-87 -18 -99 -41 -68 -130 8 -23 15 -54 15 -68 0 -14 6
-48 14 -76 25 -88 65 -256 81 -342 8 -44 37 -69 64 -55 11 6 30 11 44 11 13 0
43 6 68 14 24 7 80 22 124 32 105 24 106 24 91 82 -15 55 -21 56 -145 28 -41
-9 -80 -15 -88 -12 -7 3 -13 19 -13 35 0 16 -5 42 -10 56 -6 14 -17 56 -25 93
-8 37 -22 99 -31 137 -8 39 -20 90 -25 114 -9 45 -34 92 -47 90 -4 -1 -26 -5
-49 -9z"/>
<path d="M5318 10779 c-27 -12 -48 -28 -48 -35 0 -14 20 -66 46 -117 8 -16 14
-34 14 -42 0 -7 12 -39 26 -71 24 -54 34 -79 70 -182 20 -57 15 -91 -18 -115
-26 -20 -30 -20 -61 -5 -25 12 -37 29 -55 74 -13 33 -37 90 -53 128 -16 38
-29 76 -29 85 0 9 -4 21 -9 27 -9 9 -33 69 -52 131 -12 39 -37 48 -75 28 -16
-8 -36 -15 -45 -15 -8 0 -25 -9 -37 -20 l-21 -20 31 -72 c16 -40 36 -90 44
-110 17 -45 38 -102 60 -160 39 -103 61 -142 101 -179 44 -41 62 -45 153 -40
91 6 202 91 216 165 7 42 -2 115 -21 160 -7 17 -20 49 -28 71 -106 285 -125
329 -147 332 -8 2 -36 -7 -62 -18z"/>
<path d="M8017 10738 c-39 -61 -141 -230 -176 -291 -13 -23 -36 -60 -50 -82
-14 -22 -31 -50 -37 -62 -7 -12 -20 -36 -30 -53 -22 -36 -15 -45 48 -64 55
-16 63 -12 103 53 29 47 38 49 118 19 55 -21 59 -28 48 -79 -6 -24 -11 -50
-11 -57 0 -15 68 -47 122 -57 34 -7 39 -5 48 20 5 14 10 50 10 78 0 29 6 106
14 172 45 365 46 379 28 396 -20 19 -141 59 -177 59 -20 0 -33 -12 -58 -52z
m69 -227 c-3 -36 -11 -83 -17 -105 -10 -36 -12 -38 -42 -32 -45 9 -65 31 -49
54 6 9 17 26 22 37 6 11 19 34 30 50 11 17 24 40 30 53 19 44 33 14 26 -57z"/>
<path d="M8532 10597 c-12 -13 -22 -30 -22 -38 0 -8 -4 -19 -9 -24 -17 -17
-251 -485 -251 -500 0 -9 10 -20 23 -25 12 -6 87 -44 167 -85 159 -81 162 -82
190 -14 17 39 8 48 -96 99 -46 23 -84 46 -84 50 0 8 48 104 197 392 24 48 42
92 39 97 -7 11 -87 57 -114 65 -12 4 -26 -2 -40 -17z"/>
<path d="M4655 10493 c-37 -10 -124 -74 -143 -106 -36 -60 -45 -124 -27 -202
26 -109 71 -191 150 -272 55 -55 81 -74 115 -83 84 -23 181 4 244 66 54 54 66
83 66 161 0 60 -4 76 -22 97 l-23 25 -55 -27 c-42 -21 -54 -32 -52 -47 15
-102 15 -102 -9 -124 -31 -29 -70 -27 -104 6 -29 30 -125 186 -125 206 0 7 -7
21 -15 31 -22 29 -19 109 3 129 28 26 53 20 96 -19 41 -38 72 -40 107 -8 8 8
21 14 27 14 6 0 16 9 22 20 9 17 4 27 -36 70 -29 31 -60 54 -83 60 -37 10
-101 12 -136 3z"/>
<path d="M9250 10107 c-83 -32 -206 -157 -254 -260 -30 -65 -36 -88 -36 -145
0 -61 3 -73 33 -115 58 -81 121 -117 207 -117 66 0 107 16 153 58 35 33 34 47
-5 83 -55 51 -62 52 -103 19 -51 -41 -75 -42 -112 -7 -42 39 -28 82 68 209
107 140 184 182 224 121 15 -23 16 -31 5 -57 -28 -68 -25 -78 30 -119 28 -21
57 -36 64 -34 15 6 46 68 57 117 20 84 -50 197 -153 245 -64 30 -105 31 -178
2z"/>
<path d="M6490 10079 c-30 -5 -100 -13 -155 -18 -110 -10 -211 -25 -295 -46
-30 -8 -89 -21 -130 -30 -41 -9 -88 -21 -105 -27 -16 -5 -46 -14 -65 -18 -40
-9 -56 -15 -220 -75 -80 -30 -146 -58 -155 -66 -5 -5 -15 -9 -22 -9 -15 0
-185 -83 -278 -135 -33 -19 -69 -39 -80 -45 -11 -6 -33 -19 -50 -30 -16 -11
-37 -23 -45 -27 -8 -5 -48 -30 -88 -58 -40 -27 -81 -55 -91 -60 -10 -6 -26
-18 -36 -28 -10 -11 -34 -29 -54 -42 -20 -12 -42 -30 -50 -39 -7 -9 -17 -16
-22 -16 -18 0 -355 -327 -458 -445 -46 -52 -251 -321 -251 -329 0 -3 -19 -33
-43 -68 -24 -35 -46 -70 -50 -78 -4 -8 -16 -28 -26 -45 -11 -16 -38 -67 -61
-112 -23 -46 -46 -85 -51 -89 -5 -3 -9 -13 -9 -23 0 -10 -7 -24 -15 -31 -8 -7
-15 -20 -15 -29 0 -8 -14 -45 -31 -81 -47 -100 -73 -166 -86 -215 -3 -11 -11
-33 -18 -50 -7 -16 -20 -57 -29 -90 -10 -33 -22 -73 -28 -90 -5 -16 -14 -51
-18 -77 -5 -27 -12 -53 -15 -59 -4 -5 -11 -34 -15 -62 -5 -29 -13 -72 -19 -97
-17 -78 -33 -183 -37 -240 -2 -30 -9 -104 -14 -165 -19 -197 -9 -506 22 -700
6 -38 14 -95 18 -125 4 -30 12 -75 18 -100 5 -25 18 -81 27 -125 10 -44 23
-95 31 -113 8 -18 14 -42 14 -53 0 -12 6 -35 14 -52 8 -18 16 -43 19 -57 3
-14 15 -50 27 -80 12 -30 24 -64 27 -75 3 -11 11 -33 18 -50 8 -16 24 -52 36
-80 38 -88 100 -219 110 -235 5 -8 12 -22 16 -30 4 -8 26 -48 50 -88 24 -41
43 -76 43 -79 0 -3 12 -22 28 -42 15 -20 36 -52 46 -71 11 -19 58 -86 105
-148 48 -63 95 -126 106 -141 95 -128 420 -441 592 -570 188 -141 193 -144
223 -158 8 -4 33 -19 54 -35 21 -15 44 -28 49 -28 6 0 18 -6 26 -14 15 -12 96
-58 166 -94 17 -8 37 -19 45 -23 8 -5 22 -12 30 -15 8 -3 44 -20 80 -36 36
-17 79 -36 95 -43 17 -7 46 -19 65 -28 19 -8 44 -17 55 -20 11 -3 45 -15 75
-27 30 -12 78 -28 105 -36 49 -15 73 -21 165 -44 25 -6 66 -18 91 -26 26 -8
60 -14 77 -14 16 0 46 -7 65 -15 20 -8 58 -15 84 -15 26 0 77 -8 113 -17 96
-24 814 -24 910 0 36 9 87 17 113 17 26 0 64 7 84 15 19 8 49 15 66 15 17 0
55 7 86 16 31 8 81 22 111 30 30 9 69 20 85 26 17 5 41 12 55 15 14 2 34 9 45
13 26 12 104 40 130 47 11 2 35 11 52 19 18 8 47 21 65 29 18 8 59 25 90 40
31 14 67 30 80 35 13 5 31 14 41 20 40 23 55 31 103 55 29 14 67 36 85 48 19
13 41 26 49 30 8 4 29 16 45 27 17 11 37 23 45 27 8 4 33 20 55 35 22 15 61
43 87 60 25 18 74 56 109 83 34 28 68 55 76 60 52 36 312 289 422 410 49 54
261 329 261 338 0 3 25 42 56 88 31 46 60 93 65 104 6 11 25 47 44 80 18 33
43 80 55 105 12 25 26 52 31 60 5 8 12 22 15 30 10 26 65 144 80 173 8 16 14
36 14 46 0 9 7 26 15 37 8 10 15 31 15 46 0 15 4 29 9 32 7 5 25 56 66 196 27
89 38 136 45 180 4 25 12 65 18 90 28 114 42 199 42 244 0 27 7 90 16 141 26
156 11 629 -28 825 -6 30 -14 80 -18 110 -8 60 -23 129 -46 201 -8 26 -14 55
-14 65 0 10 -6 36 -14 59 -8 22 -24 73 -36 113 -13 40 -27 75 -31 78 -5 3 -9
16 -9 29 0 13 -7 41 -16 62 -9 21 -23 52 -30 68 -40 96 -135 290 -179 370 -19
33 -38 69 -43 80 -6 11 -26 44 -46 73 -20 29 -41 64 -46 77 -5 14 -14 25 -20
25 -5 0 -10 5 -10 11 0 6 -13 28 -30 49 -16 21 -30 43 -30 49 0 6 -4 11 -8 11
-5 0 -30 30 -57 67 -161 219 -429 487 -648 648 -37 27 -67 52 -67 57 0 4 -5 8
-11 8 -6 0 -28 14 -49 30 -21 17 -43 30 -49 30 -6 0 -11 5 -11 10 0 6 -10 15
-22 20 -13 6 -36 19 -53 30 -16 11 -39 24 -50 30 -11 6 -33 19 -50 30 -88 56
-400 210 -426 210 -8 0 -19 4 -24 9 -11 10 -61 29 -165 63 -36 11 -80 27 -98
34 -18 8 -39 14 -47 14 -8 0 -29 6 -47 14 -18 8 -69 22 -113 31 -44 9 -98 22
-120 27 -22 6 -67 14 -100 18 -33 4 -85 13 -115 18 -166 33 -638 52 -760 31z
m555 -190 c22 -5 85 -13 140 -18 110 -10 196 -25 265 -47 25 -8 58 -14 73 -14
16 0 38 -5 50 -12 12 -6 40 -15 62 -19 51 -10 192 -55 228 -74 16 -8 35 -15
42 -15 7 0 27 -7 44 -15 17 -8 45 -22 62 -30 17 -8 35 -15 41 -15 18 0 261
-123 346 -174 45 -28 90 -56 100 -61 45 -27 139 -90 185 -125 70 -54 64 -49
134 -103 157 -120 420 -389 537 -549 28 -38 53 -68 58 -68 4 0 8 -5 8 -11 0
-6 14 -28 30 -49 17 -21 30 -43 30 -49 0 -6 5 -11 10 -11 6 0 13 -7 17 -15 3
-9 25 -46 49 -82 24 -37 44 -70 44 -75 0 -4 12 -24 26 -45 14 -21 30 -47 35
-58 5 -11 13 -27 18 -35 5 -8 30 -60 56 -115 25 -55 53 -113 61 -128 7 -16 14
-37 14 -47 0 -10 4 -21 10 -25 5 -3 14 -20 19 -38 5 -18 19 -57 31 -87 12 -30
26 -71 30 -90 4 -19 13 -48 18 -65 25 -74 62 -224 72 -292 5 -28 12 -58 16
-65 4 -7 12 -58 16 -113 4 -55 12 -125 17 -155 13 -75 13 -520 0 -600 -6 -36
-14 -110 -18 -165 -4 -55 -13 -110 -19 -122 -7 -12 -12 -34 -12 -48 0 -39 -43
-215 -76 -310 -8 -23 -14 -48 -14 -57 0 -10 -6 -32 -14 -50 -8 -18 -22 -53
-31 -78 -9 -25 -23 -58 -30 -75 -7 -16 -20 -50 -30 -75 -24 -61 -134 -285
-165 -335 -13 -22 -35 -60 -48 -83 -46 -86 -235 -350 -308 -432 -170 -190
-268 -288 -410 -410 -52 -44 -232 -180 -239 -180 -4 0 -24 -13 -44 -28 -20
-16 -43 -32 -51 -36 -16 -7 -35 -18 -95 -57 -22 -14 -47 -29 -55 -32 -8 -4
-28 -16 -45 -27 -16 -11 -36 -22 -42 -25 -7 -3 -19 -7 -25 -10 -7 -3 -44 -23
-83 -44 -38 -22 -80 -40 -91 -40 -12 -1 -27 -8 -34 -16 -7 -8 -19 -15 -27 -15
-8 0 -27 -6 -41 -14 -31 -16 -91 -39 -222 -86 -19 -6 -51 -15 -70 -19 -19 -4
-45 -13 -57 -19 -12 -7 -34 -12 -50 -12 -15 -1 -39 -7 -53 -15 -14 -8 -39 -14
-56 -15 -17 0 -51 -7 -74 -15 -23 -8 -61 -15 -84 -15 -23 0 -57 -5 -76 -11
-19 -6 -78 -15 -130 -19 -52 -4 -161 -13 -241 -20 -116 -10 -172 -10 -275 0
-71 6 -176 15 -234 19 -58 5 -118 13 -133 20 -16 6 -45 11 -66 11 -21 0 -60 7
-87 15 -27 8 -62 15 -79 15 -16 1 -41 7 -55 15 -14 8 -38 14 -53 15 -16 0 -38
5 -50 12 -12 6 -38 15 -57 19 -42 9 -118 35 -142 49 -10 6 -24 10 -33 10 -8 0
-31 7 -52 16 -48 20 -94 40 -135 58 -73 31 -189 90 -194 98 -3 4 -13 8 -23 8
-10 0 -24 7 -31 15 -7 8 -18 15 -26 15 -7 0 -32 13 -56 29 -24 16 -59 37 -78
48 -92 50 -334 228 -450 331 -165 147 -331 325 -452 484 -66 86 -178 246 -178
253 0 2 -12 21 -26 42 -14 21 -30 47 -35 58 -5 11 -18 34 -29 50 -11 17 -23
37 -26 45 -3 8 -32 69 -64 135 -32 66 -66 140 -75 165 -10 25 -23 59 -30 75
-13 29 -27 68 -55 145 -6 19 -15 52 -20 73 -4 21 -13 44 -19 50 -6 6 -11 22
-11 37 0 14 -6 45 -14 70 -8 25 -21 79 -29 120 -9 41 -21 102 -28 135 -6 33
-15 110 -20 170 -4 61 -12 139 -18 175 -13 82 -14 323 0 415 6 39 14 120 18
180 5 61 13 130 19 155 6 25 19 83 28 130 9 47 22 105 30 129 8 25 14 56 14
70 0 14 7 35 15 45 8 11 15 31 15 45 1 14 7 37 15 51 8 14 14 35 15 47 0 12 6
34 14 50 17 35 38 85 61 143 10 25 30 72 45 105 15 33 31 67 34 75 3 8 10 22
15 30 5 8 12 22 15 30 4 8 22 42 41 75 19 33 39 71 45 85 6 14 22 39 36 57 13
17 24 34 24 37 0 3 20 35 45 72 25 36 45 69 45 74 0 5 6 13 13 17 7 4 42 46
77 93 35 47 73 96 85 110 13 14 59 66 103 115 84 95 164 174 271 265 36 30 81
69 100 86 20 17 51 39 69 50 17 10 32 21 32 25 0 6 146 109 155 109 2 0 33 20
69 45 37 25 70 45 76 45 5 0 25 11 44 23 39 27 279 146 346 172 25 9 54 22 64
27 11 6 31 14 45 19 14 4 58 19 96 33 39 14 79 26 90 26 11 0 29 7 39 15 11 8
34 15 50 15 17 1 42 7 56 15 14 8 39 14 56 15 17 0 48 7 67 15 20 8 51 15 69
15 18 0 55 7 82 15 27 8 74 15 105 15 31 1 85 7 121 14 79 17 575 21 635 5z"/>
<path d="M6439 9659 c-8 -5 -42 -9 -75 -9 -41 0 -66 -5 -73 -14 -7 -8 -39 -17
-74 -20 -34 -3 -75 -8 -92 -11 -16 -3 -52 -9 -80 -13 -27 -5 -59 -13 -70 -19
-11 -6 -44 -14 -72 -18 -29 -4 -55 -11 -59 -16 -3 -5 -16 -9 -28 -9 -13 0 -29
-6 -35 -14 -6 -7 -29 -16 -51 -20 -38 -6 -81 -23 -175 -67 -22 -11 -45 -19
-52 -19 -7 0 -51 -20 -97 -44 -47 -24 -96 -46 -108 -50 -13 -3 -34 -16 -48
-28 -14 -13 -38 -29 -55 -36 -50 -22 -165 -94 -165 -103 0 -5 -6 -9 -14 -9 -7
0 -38 -20 -68 -45 -30 -25 -60 -45 -66 -45 -6 0 -38 -27 -71 -60 -33 -33 -65
-60 -70 -60 -12 0 -286 -275 -340 -340 -20 -24 -48 -56 -62 -70 -14 -14 -42
-50 -62 -81 -20 -31 -46 -64 -57 -74 -11 -10 -20 -24 -20 -32 0 -7 -9 -21 -20
-30 -11 -10 -20 -21 -20 -26 0 -5 -11 -22 -25 -39 -14 -16 -25 -35 -25 -42 0
-8 -9 -25 -20 -39 -30 -38 -187 -357 -195 -395 -4 -18 -13 -45 -21 -60 -8 -15
-14 -34 -14 -43 0 -8 -7 -24 -15 -35 -8 -10 -15 -27 -15 -36 0 -9 -6 -29 -14
-45 -21 -43 -46 -128 -46 -156 0 -14 -4 -28 -9 -31 -10 -7 -21 -60 -25 -129
-2 -27 -9 -54 -15 -60 -6 -6 -11 -34 -11 -62 0 -28 -5 -56 -11 -62 -16 -16
-23 -597 -10 -738 20 -201 26 -250 36 -265 5 -8 10 -33 11 -55 1 -22 7 -58 13
-80 5 -22 20 -78 31 -125 21 -82 35 -122 66 -183 8 -16 14 -35 14 -43 0 -8 9
-31 20 -51 11 -21 20 -45 20 -55 0 -9 5 -20 10 -23 6 -3 10 -14 10 -24 0 -21
65 -157 85 -181 8 -8 35 -58 61 -110 26 -52 51 -99 56 -105 31 -39 106 -146
121 -175 11 -19 37 -53 58 -75 21 -23 39 -45 39 -49 0 -14 84 -107 227 -249
158 -159 228 -221 308 -274 34 -23 67 -48 75 -58 7 -9 45 -35 84 -57 39 -23
80 -49 91 -59 11 -9 31 -20 45 -24 14 -4 34 -15 45 -25 37 -32 236 -130 265
-130 11 0 22 -5 25 -10 3 -6 27 -19 53 -31 50 -22 107 -47 132 -59 9 -4 36
-11 60 -15 25 -4 54 -14 66 -21 11 -8 23 -11 26 -8 4 3 16 0 28 -6 13 -7 55
-18 94 -26 39 -7 89 -18 111 -25 22 -6 56 -13 76 -14 20 -2 46 -8 57 -14 11
-6 40 -11 64 -11 24 0 48 -4 54 -9 29 -29 804 -29 804 0 0 5 21 9 47 9 26 0
60 4 77 9 17 6 58 15 91 21 33 7 67 15 75 20 9 4 45 11 80 15 36 4 74 14 85
21 11 8 30 14 42 14 13 0 31 4 41 9 9 5 42 17 72 26 30 10 62 24 71 31 8 8 26
14 38 14 12 0 46 13 76 30 29 16 75 37 102 46 26 9 55 22 64 30 8 8 21 14 27
14 17 0 92 41 92 50 0 5 10 12 22 16 11 3 55 27 95 53 41 25 82 51 91 56 68
41 106 69 131 95 15 17 33 30 38 30 12 0 43 27 156 131 45 42 98 86 118 97 20
12 44 37 52 55 9 17 44 59 77 92 56 54 129 143 155 187 6 10 33 50 60 90 28
40 55 81 60 90 6 9 34 51 63 93 28 41 52 80 52 84 0 5 4 11 8 13 11 4 52 73
52 87 0 6 18 40 40 76 22 36 40 73 40 81 0 9 8 31 19 48 10 17 40 96 66 176
25 80 51 156 57 170 6 14 16 50 23 80 7 30 19 73 25 95 7 22 16 65 20 95 5 30
13 87 19 125 30 187 52 648 32 668 -6 6 -11 51 -11 108 0 54 -4 100 -9 103 -5
3 -11 29 -15 58 -11 96 -17 133 -26 153 -5 11 -11 34 -15 50 -26 127 -33 156
-42 167 -6 7 -14 34 -18 61 -4 26 -11 50 -16 53 -5 3 -9 14 -9 24 0 19 -18 66
-46 123 -8 16 -14 34 -14 41 0 8 -43 98 -95 202 -107 210 -109 214 -147 265
-16 20 -28 41 -28 46 0 5 -35 56 -77 112 -43 56 -88 117 -101 134 -13 18 -39
48 -58 67 -19 20 -34 40 -34 44 0 9 -225 231 -308 302 -64 57 -242 189 -292
219 -10 6 -26 17 -35 25 -19 16 -29 22 -117 69 -35 18 -70 39 -78 46 -14 11
-89 48 -225 110 -27 12 -78 33 -112 46 -35 13 -63 27 -63 30 0 4 -17 9 -37 13
-21 3 -51 13 -67 21 -15 8 -37 15 -47 15 -10 0 -20 4 -23 9 -3 5 -34 12 -68
16 -35 4 -69 12 -76 18 -16 13 -83 25 -242 43 -30 3 -64 13 -76 20 -17 11 -88
16 -330 20 -170 2 -323 6 -340 9 -17 2 -37 -1 -45 -6z m575 -228 c3 -4 54 -11
113 -15 59 -4 113 -12 120 -18 7 -5 36 -13 65 -18 87 -14 151 -30 178 -44 14
-7 31 -11 39 -8 15 5 140 -32 183 -54 14 -8 32 -14 40 -14 7 0 47 -18 88 -40
41 -22 82 -42 90 -46 8 -3 24 -10 35 -14 11 -5 31 -12 45 -16 14 -3 44 -19 68
-35 24 -16 45 -29 48 -29 2 0 23 -12 47 -27 23 -15 50 -32 59 -38 10 -5 52
-34 93 -62 42 -29 79 -53 82 -53 3 0 27 -19 54 -42 26 -24 71 -61 100 -83 58
-44 236 -219 311 -307 74 -86 128 -157 128 -166 0 -5 10 -17 21 -28 32 -28 97
-123 119 -174 6 -14 22 -38 34 -55 25 -33 176 -331 176 -347 0 -5 6 -24 14
-41 8 -18 22 -57 31 -87 10 -30 23 -69 31 -86 7 -18 16 -48 19 -68 4 -20 11
-39 16 -42 5 -3 9 -20 9 -38 0 -18 7 -41 15 -52 16 -21 20 -80 7 -88 -5 -3
-110 96 -233 219 -254 255 -256 256 -308 182 -44 -64 -123 -137 -148 -137 -13
0 -30 11 -40 26 -10 15 -52 64 -93 110 -127 141 -160 181 -160 189 0 5 -30 41
-67 81 -146 157 -203 222 -203 230 0 5 -14 22 -30 36 -27 23 -34 25 -60 16
-17 -5 -30 -14 -30 -19 0 -5 -7 -9 -15 -9 -8 0 -23 -8 -33 -18 -10 -10 -38
-33 -64 -51 -61 -43 -81 -37 -115 37 -14 32 -29 59 -34 62 -4 3 -19 28 -34 55
-14 28 -41 70 -60 95 -18 25 -34 50 -34 56 -1 6 -17 33 -36 60 -19 27 -35 53
-35 57 0 5 -11 23 -25 41 -14 18 -25 36 -25 40 0 18 -76 126 -89 126 -8 0 -57
-39 -108 -87 -166 -158 -251 -233 -263 -233 -6 0 -15 12 -20 26 -6 14 -91 106
-190 204 -99 98 -180 182 -180 187 0 10 -349 363 -359 363 -10 0 -171 -165
-171 -175 0 -5 -39 -51 -87 -102 -205 -217 -243 -260 -243 -269 0 -5 -40 -50
-90 -99 -49 -49 -90 -94 -90 -100 0 -5 -34 -43 -75 -84 -41 -40 -75 -77 -75
-82 0 -5 -34 -44 -75 -87 -41 -42 -75 -81 -75 -86 0 -16 -42 -56 -59 -56 -18
0 -100 38 -122 57 -22 18 -90 53 -104 53 -5 -1 -30 -26 -55 -57 -25 -31 -56
-68 -69 -82 -13 -14 -35 -43 -49 -63 -13 -21 -29 -38 -33 -38 -5 0 -9 -6 -9
-14 0 -8 -21 -36 -47 -62 -27 -26 -52 -58 -58 -70 -15 -34 -124 -154 -140
-154 -8 0 -29 16 -48 35 -19 19 -38 35 -42 35 -4 0 -30 20 -57 45 l-48 46
-115 -115 c-63 -63 -115 -120 -115 -127 0 -15 -255 -269 -270 -269 -15 0 -12
62 6 127 9 32 18 69 21 83 3 14 9 30 13 35 4 6 11 30 15 54 4 24 18 59 31 79
13 19 24 42 24 51 0 9 14 43 30 75 17 32 30 64 30 71 0 15 72 155 105 203 14
20 25 40 25 45 0 4 12 26 27 50 15 23 36 58 46 77 11 19 31 49 46 66 50 60 81
100 118 153 39 56 368 391 384 391 5 0 26 17 48 38 21 20 62 53 90 72 29 19
60 42 70 50 25 21 52 38 78 50 12 5 48 27 80 49 69 47 308 171 331 172 10 0
31 9 47 20 17 10 35 21 40 23 22 9 104 35 175 56 41 13 82 25 90 28 8 3 44 11
80 18 115 22 149 31 163 42 7 6 64 14 127 18 63 3 122 10 130 15 20 11 557 11
564 0z m-604 -867 c0 -416 -2 -428 -50 -341 -13 23 -28 47 -33 52 -4 6 -25 44
-45 85 -47 96 -66 101 -79 23 -6 -32 -16 -71 -22 -88 -6 -16 -13 -42 -16 -56
-6 -34 -36 -47 -50 -23 -5 10 -24 33 -41 52 -31 36 -54 37 -54 3 0 -9 -4 -21
-8 -27 -7 -7 -69 -193 -88 -262 -6 -21 -48 -10 -53 13 -6 33 -52 105 -67 105
-7 0 -16 -12 -20 -27 -9 -40 -34 -125 -44 -148 -5 -11 -11 -33 -13 -50 -9 -53
-26 -85 -44 -85 -10 0 -41 24 -70 52 l-53 53 -25 -30 c-22 -28 -75 -128 -88
-167 -9 -25 -47 -22 -85 5 -17 13 -51 32 -74 43 -24 10 -49 24 -56 31 -27 26
-46 8 -48 -42 -1 -16 -9 -56 -18 -88 -9 -32 -16 -73 -16 -91 0 -25 -6 -36 -25
-46 -25 -13 -28 -11 -70 34 -29 32 -48 45 -57 40 -25 -14 -58 -49 -58 -60 0
-6 -18 -29 -40 -50 -22 -22 -40 -44 -40 -50 0 -5 -13 -23 -30 -39 -16 -16 -30
-34 -30 -40 0 -7 -20 -34 -44 -61 l-44 -48 -47 43 c-26 24 -63 61 -82 82 -20
22 -42 39 -50 39 -8 0 -39 -25 -69 -55 -93 -95 -124 -105 -124 -40 0 19 -4 36
-8 39 -5 3 -37 -15 -73 -40 -72 -49 -79 -52 -79 -26 0 22 260 282 282 282 9 0
21 -7 28 -15 6 -8 21 -17 32 -21 12 -3 31 -16 42 -28 22 -24 121 -86 135 -86
10 0 72 70 116 129 50 69 92 124 123 161 15 19 44 58 63 85 18 28 45 64 59 81
14 17 32 40 39 52 22 32 40 35 83 12 21 -11 44 -20 51 -20 7 0 43 -16 81 -35
82 -41 91 -42 107 -13 7 13 45 59 86 103 40 44 113 124 161 178 48 53 118 130
155 170 37 40 76 84 85 98 9 13 50 58 89 99 40 41 73 79 73 83 0 5 35 46 78
91 86 92 178 195 217 244 15 17 31 30 36 26 5 -3 9 -170 9 -390z m1061 -156
c2 -111 8 -215 14 -270 10 -83 -18 -78 -71 10 -10 18 -23 31 -29 29 -10 -4
-31 -70 -45 -147 -5 -25 -14 -65 -20 -90 -6 -25 -14 -60 -17 -78 -3 -18 -9
-35 -14 -38 -5 -3 -9 -25 -9 -50 0 -30 -4 -44 -13 -44 -16 0 -85 48 -106 73
-23 29 -49 20 -71 -23 -11 -21 -20 -48 -20 -58 0 -10 -3 -21 -6 -25 -10 -9
-53 -139 -54 -159 0 -12 -8 -18 -23 -18 -20 0 -33 18 -85 124 -34 68 -66 135
-72 150 -5 14 -14 26 -19 26 -6 0 -67 -56 -136 -125 -170 -169 -178 -168 -85
21 33 67 60 130 60 139 0 9 13 34 29 54 15 20 43 69 62 109 43 95 57 98 138
37 66 -50 87 -52 96 -8 4 15 10 36 16 45 5 10 9 22 9 27 0 6 9 35 21 66 25 66
41 70 89 20 19 -19 39 -35 45 -35 13 0 144 124 167 158 34 50 114 130 131 131
14 1 17 -8 18 -51z m175 -690 c7 -13 21 -41 32 -63 10 -22 26 -46 35 -54 10
-7 17 -19 17 -26 0 -6 9 -20 20 -30 26 -23 26 -67 -1 -122 l-21 -44 43 -47 44
-47 -49 -3 c-28 -2 -60 2 -73 9 -19 10 -31 10 -57 1 -18 -7 -47 -12 -65 -12
-17 0 -42 -7 -55 -15 -19 -13 -25 -13 -42 -1 -16 13 -17 18 -6 35 6 12 12 39
12 61 0 45 27 80 60 80 23 0 68 25 87 49 10 12 10 18 -1 30 -17 19 -28 191
-14 215 11 19 15 17 34 -16z m1419 -267 c25 -39 45 -72 45 -75 0 -10 -59 -6
-65 4 -14 23 -44 9 -65 -32 -32 -62 -89 -121 -130 -135 -19 -7 -65 -13 -102
-13 -61 0 -68 2 -68 20 0 13 13 26 38 39 97 49 177 113 224 179 26 36 48 70
48 74 0 5 7 8 15 8 8 0 35 -31 60 -69z m-2270 -116 c33 -36 88 -96 123 -134
34 -37 62 -74 62 -82 0 -8 -23 -37 -51 -64 -28 -28 -57 -61 -64 -75 -7 -14
-36 -41 -64 -60 -27 -19 -54 -45 -60 -57 -6 -13 -15 -23 -20 -23 -11 0 -281
269 -281 281 0 4 37 46 83 92 45 46 93 100 106 119 25 36 65 66 91 67 8 1 42
-28 75 -64z m544 -394 c17 -21 31 -42 31 -47 0 -4 6 -15 14 -23 7 -9 28 -43
46 -76 18 -33 41 -71 51 -84 11 -13 19 -30 19 -37 0 -8 4 -14 8 -14 13 0 42
-57 42 -84 0 -18 -8 -30 -29 -41 -16 -8 -31 -18 -33 -23 -6 -16 -137 -102
-155 -102 -10 0 -28 -6 -39 -14 -36 -26 -360 -56 -398 -38 -12 6 -56 13 -99
16 -66 5 -90 12 -153 46 -90 48 -130 76 -163 113 -14 15 -32 27 -39 27 -17 0
-62 41 -62 56 0 6 -18 31 -41 55 -38 41 -109 150 -109 168 0 4 -13 25 -30 47
-48 63 -36 87 20 38 16 -15 38 -32 49 -38 46 -27 137 -91 144 -103 4 -7 13
-13 20 -13 10 0 34 -10 119 -52 10 -4 28 -8 41 -8 13 0 28 -5 34 -11 12 -12
290 -7 338 6 86 24 215 125 281 221 20 30 43 54 50 54 7 0 26 -18 43 -39z
m-1449 -207 c30 -3 59 -10 65 -15 5 -5 26 -9 46 -9 21 0 40 -4 43 -9 3 -4 32
-18 64 -29 32 -12 71 -35 87 -52 16 -16 34 -30 40 -30 24 0 116 -116 146 -182
7 -16 15 -28 19 -28 4 0 10 -19 13 -43 3 -24 13 -56 22 -72 8 -17 13 -41 10
-56 -4 -17 0 -30 10 -39 22 -18 22 -192 0 -210 -8 -7 -15 -25 -15 -40 0 -91
-129 -289 -213 -327 -35 -16 -35 -41 1 -49 75 -17 221 -93 274 -142 l46 -45
84 5 c49 3 95 12 113 22 17 9 36 16 42 16 7 0 45 30 84 67 49 46 81 87 104
133 18 36 51 101 73 145 39 80 82 198 82 229 0 9 4 16 9 16 5 0 15 15 21 34
25 76 264 276 330 276 10 0 22 5 25 10 3 6 21 10 39 10 18 0 41 7 52 15 27 20
221 20 248 0 11 -8 41 -15 67 -15 26 0 50 -4 53 -9 3 -5 27 -12 52 -16 26 -4
66 -19 88 -33 23 -14 57 -35 76 -45 94 -52 240 -204 275 -287 10 -25 24 -52
31 -60 6 -8 15 -26 18 -40 4 -14 11 -34 15 -45 26 -63 51 -154 51 -182 0 -17
5 -35 10 -38 12 -8 14 -441 1 -449 -7 -5 -14 -53 -24 -166 -3 -22 -15 -56 -37
-100 -4 -9 -11 -36 -15 -60 -4 -25 -13 -52 -19 -60 -7 -8 -20 -40 -31 -70 -17
-52 -27 -68 -82 -139 -13 -16 -23 -33 -23 -38 0 -10 -161 -166 -207 -199 -16
-12 -44 -29 -63 -37 -19 -8 -44 -24 -54 -36 -11 -12 -31 -21 -46 -21 -15 0
-33 -6 -39 -14 -6 -8 -24 -16 -39 -19 -15 -4 -49 -11 -77 -17 -89 -21 -331
-24 -418 -6 -77 16 -185 66 -200 92 -4 8 -14 14 -22 14 -18 0 -100 83 -133
134 -34 54 -82 147 -82 160 0 6 -7 24 -15 40 -8 15 -13 32 -10 36 3 4 1 21 -4
36 -5 16 -12 46 -15 67 l-5 38 29 -21 c16 -11 45 -43 65 -70 20 -28 42 -50 49
-50 7 0 22 -11 35 -23 19 -21 47 -36 159 -83 18 -8 47 -14 65 -14 18 -1 43 -7
57 -15 15 -9 54 -14 101 -15 44 0 80 -5 87 -12 9 -9 15 -9 24 0 7 7 41 12 80
12 38 0 81 6 96 14 15 7 45 16 68 19 41 7 175 70 249 118 66 43 216 212 230
259 4 14 13 32 20 40 6 8 20 40 29 70 9 30 21 64 25 75 35 79 36 394 2 428 -6
6 -11 19 -11 28 0 34 -53 122 -116 191 -35 40 -64 77 -64 84 0 7 -10 16 -22
20 -13 4 -36 17 -53 29 -42 31 -151 80 -208 94 -92 22 -163 13 -252 -32 -45
-22 -125 -95 -125 -113 0 -6 -7 -17 -15 -24 -8 -6 -30 -44 -50 -83 -20 -40
-52 -97 -73 -128 -20 -30 -47 -70 -58 -88 -27 -40 -172 -191 -184 -191 -5 0
-25 -13 -43 -30 -36 -32 -117 -70 -147 -70 -10 0 -22 -4 -25 -10 -3 -5 -46
-10 -95 -10 -49 0 -92 5 -95 10 -3 6 -20 10 -36 10 -17 0 -39 4 -49 10 -26 14
-37 -23 -16 -55 22 -34 24 -448 2 -492 -8 -15 -22 -54 -32 -85 -9 -32 -21 -58
-25 -58 -4 0 -14 -11 -21 -24 -44 -79 -91 -130 -201 -218 -51 -41 -169 -98
-234 -113 -67 -16 -330 -20 -377 -6 -17 5 -51 15 -76 22 -53 14 -106 38 -175
79 -27 16 -61 35 -75 42 -48 24 -135 87 -169 122 -19 20 -40 36 -45 37 -12 0
-55 46 -134 141 -87 106 -102 126 -102 135 0 6 -13 28 -28 49 -40 55 -106 190
-122 249 -7 28 -17 54 -21 59 -5 6 -9 18 -9 27 0 10 -9 38 -20 63 -19 45 -18
76 2 76 14 0 35 -27 52 -65 7 -17 30 -46 50 -65 20 -19 36 -38 36 -43 0 -9 52
-74 82 -104 49 -48 176 -163 182 -163 3 0 27 -15 53 -34 27 -19 75 -48 108
-66 33 -17 67 -35 75 -40 8 -5 53 -23 100 -41 47 -17 93 -35 103 -40 28 -15
111 -21 294 -21 143 -1 176 2 197 16 14 9 32 16 41 16 25 0 65 28 133 94 63
61 102 124 102 168 0 13 7 32 15 42 19 25 19 89 1 129 -8 18 -17 48 -20 68 -4
20 -17 46 -31 59 -14 13 -25 29 -25 35 0 14 -62 72 -120 112 -84 57 -257 67
-356 21 -31 -15 -63 -1 -70 30 -3 15 -10 37 -15 50 -5 13 -9 36 -9 51 0 16 -6
34 -14 40 -9 7 -17 42 -21 87 -4 41 -11 77 -16 80 -5 3 -9 27 -9 53 l0 48 162
5 c107 4 163 9 166 17 2 6 11 11 19 11 24 0 116 46 134 67 27 31 59 124 59
170 0 116 -118 213 -259 213 -32 0 -74 6 -93 14 -29 12 -39 13 -59 2 -14 -7
-48 -15 -76 -19 -59 -7 -157 -53 -192 -91 -14 -14 -29 -26 -35 -26 -15 0 -186
-172 -186 -187 0 -7 -10 -19 -21 -27 -19 -13 -24 -13 -45 1 -13 8 -24 19 -24
24 0 4 -24 42 -52 84 -29 41 -57 83 -63 93 -5 9 -32 50 -60 91 -66 96 -75 112
-75 138 0 25 45 83 65 83 8 0 31 18 52 41 21 22 51 47 68 54 16 7 59 36 95 64
36 28 85 60 108 72 24 11 60 30 80 42 43 26 112 46 162 47 19 1 44 5 55 10 19
9 69 7 185 -6z"/>
<path d="M3935 9951 c-16 -4 -46 -16 -65 -26 -38 -20 -210 -162 -210 -174 0
-4 8 -16 18 -27 9 -10 80 -91 156 -179 243 -281 247 -285 271 -285 13 0 25 4
27 8 2 5 38 39 81 77 112 97 131 130 132 230 0 69 -4 88 -30 139 -37 74 -113
159 -181 202 -55 35 -141 50 -199 35z m85 -171 c35 -26 102 -97 139 -149 25
-36 31 -54 31 -96 0 -45 -4 -55 -24 -69 -24 -15 -25 -15 -161 140 -75 86 -134
161 -132 168 12 38 97 42 147 6z"/>
<path d="M9655 9664 c-260 -251 -335 -328 -335 -343 0 -9 8 -24 18 -32 9 -9
71 -71 136 -138 66 -66 125 -121 131 -121 13 0 85 74 85 88 0 4 -32 39 -71 77
-98 97 -99 99 -53 146 21 21 45 39 54 39 9 0 34 -18 55 -41 62 -63 66 -64 115
-20 l43 39 -30 38 c-17 22 -40 48 -52 58 -29 27 -27 39 19 80 49 44 50 43 143
-53 37 -39 73 -71 80 -71 18 0 77 62 77 80 -1 20 -261 290 -280 290 -8 0 -69
-53 -135 -116z"/>
<path d="M3486 9563 c-20 -21 -36 -43 -36 -49 0 -7 50 -56 110 -110 61 -54
110 -104 110 -111 0 -14 -34 -10 -110 12 -60 18 -122 33 -193 47 l-59 12 -39
-43 c-43 -46 -48 -69 -21 -92 68 -58 195 -171 237 -210 102 -94 191 -172 214
-188 23 -15 25 -14 62 29 22 25 39 50 38 55 0 6 -52 55 -114 110 -63 55 -115
106 -115 113 0 18 80 3 230 -43 25 -8 68 -17 96 -20 49 -7 52 -6 87 31 20 22
37 46 37 55 0 9 -35 47 -77 85 -42 38 -148 133 -235 212 -87 78 -165 142 -173
142 -7 0 -30 -17 -49 -37z"/>
<path d="M10104 9310 c-38 -27 -85 -61 -104 -75 -40 -30 -271 -199 -318 -233
-18 -12 -32 -30 -32 -38 0 -18 57 -94 70 -94 5 0 68 43 142 95 73 52 135 90
137 84 3 -9 -23 -66 -135 -292 -13 -27 -24 -52 -24 -56 0 -21 64 -101 80 -101
11 0 85 48 165 108 80 59 195 143 255 186 61 44 110 86 110 93 0 20 -61 93
-77 93 -11 0 -187 -125 -241 -171 -8 -7 -17 -8 -23 -2 -5 5 25 76 71 168 44
88 80 164 80 170 0 14 -63 104 -76 109 -6 2 -42 -18 -80 -44z"/>
<path d="M3052 9002 c-7 -2 -38 -42 -68 -88 l-55 -85 21 -27 c12 -15 74 -81
138 -147 64 -66 159 -164 211 -218 54 -56 101 -97 110 -95 9 2 21 14 27 26 6
13 17 29 23 35 20 20 12 53 -20 83 -52 49 -53 57 -14 119 31 48 40 55 68 55
18 0 41 -7 51 -15 37 -28 59 -18 100 45 21 33 36 66 33 72 -3 7 -27 21 -53 31
-27 10 -66 25 -86 33 -21 8 -55 20 -75 28 -78 28 -120 45 -198 76 -72 29 -120
47 -180 70 -11 4 -26 5 -33 2z m126 -205 c15 -8 44 -21 65 -30 74 -32 107 -50
107 -59 0 -13 -43 -68 -53 -68 -15 0 -167 152 -161 161 7 12 11 11 42 -4z"/>
<path d="M10478 8833 c-27 -14 -48 -30 -48 -35 0 -5 14 -34 31 -65 36 -65 36
-65 -61 -116 -239 -124 -348 -183 -367 -199 -10 -8 -5 -24 18 -68 34 -65 53
-85 71 -76 7 4 40 22 73 40 33 19 103 56 155 83 52 27 121 64 153 82 32 18 64
30 71 28 6 -3 22 -26 35 -51 34 -65 41 -69 87 -46 47 24 68 49 54 65 -10 12
-39 66 -129 240 -53 101 -80 145 -90 144 -3 0 -27 -12 -53 -26z"/>
<path d="M1788 8440 c-37 -3 -73 -11 -80 -17 -6 -7 -22 -13 -34 -13 -26 0
-125 -52 -175 -91 -20 -16 -40 -29 -43 -29 -6 0 -49 -43 -119 -119 -40 -43
-137 -167 -137 -174 0 -3 -18 -32 -41 -66 -22 -33 -52 -82 -66 -108 -38 -71
-52 -95 -73 -128 -10 -16 -30 -52 -45 -80 -24 -48 -33 -64 -55 -102 -6 -10
-15 -27 -20 -38 -6 -11 -19 -33 -29 -50 -11 -16 -30 -50 -42 -75 -13 -25 -34
-61 -47 -80 -13 -19 -28 -44 -33 -55 -10 -23 -28 -51 -47 -74 -7 -9 -40 -54
-74 -101 -72 -100 -91 -123 -178 -210 -61 -62 -167 -148 -200 -163 -8 -4 -35
-18 -59 -32 -24 -14 -51 -25 -58 -25 -8 0 -26 -9 -40 -20 l-26 -20 25 0 c13 0
51 -13 83 -30 32 -16 62 -30 67 -30 31 0 225 -166 294 -251 91 -112 214 -285
214 -301 0 -4 17 -33 39 -65 21 -32 50 -80 65 -108 15 -27 41 -72 57 -100 17
-27 37 -63 45 -80 18 -37 58 -106 93 -160 14 -22 34 -56 44 -75 11 -19 32 -54
48 -78 16 -24 29 -45 29 -48 0 -3 28 -42 62 -87 67 -89 255 -282 291 -297 12
-6 36 -19 52 -30 17 -11 37 -22 45 -26 8 -3 24 -10 35 -16 11 -7 36 -15 55
-19 19 -4 53 -12 75 -18 49 -13 173 -13 240 0 28 5 69 12 92 15 24 4 48 13 54
20 6 8 21 14 34 14 12 0 36 7 53 16 35 17 41 46 17 78 -8 11 -15 30 -15 42 0
13 -4 25 -10 29 -5 3 -14 20 -19 38 -5 18 -19 57 -31 87 -12 30 -26 73 -30 95
-4 22 -12 54 -18 70 -45 132 -102 373 -102 431 0 22 -7 49 -15 60 -8 10 -15
37 -15 59 0 22 -7 73 -15 115 -54 282 -56 988 -3 1325 6 39 14 97 17 130 4 33
10 66 15 74 5 7 12 41 16 75 7 58 11 79 47 221 17 66 39 144 55 190 5 17 14
46 18 65 12 53 43 135 76 203 8 16 14 36 14 45 0 9 7 26 15 36 8 11 15 35 15
52 0 29 -4 34 -32 43 -18 5 -46 14 -63 19 -100 34 -141 41 -235 44 -58 2 -135
1 -172 -2z"/>
<path d="M11470 8441 c-47 -4 -91 -10 -99 -15 -8 -5 -31 -13 -50 -17 -53 -11
-125 -39 -132 -51 -8 -13 6 -67 21 -82 5 -5 10 -20 10 -32 0 -13 4 -25 10 -29
5 -3 14 -20 19 -38 5 -18 19 -57 31 -87 12 -30 26 -71 30 -90 5 -19 16 -57 24
-85 40 -130 57 -194 65 -240 5 -27 14 -63 20 -78 6 -16 11 -46 11 -67 0 -21 5
-51 11 -67 6 -15 15 -55 19 -88 4 -33 12 -94 18 -135 30 -202 35 -278 39 -565
6 -323 -10 -600 -43 -759 -8 -38 -14 -83 -14 -102 0 -18 -5 -45 -11 -61 -6
-15 -15 -55 -20 -88 -4 -33 -17 -98 -29 -145 -11 -47 -24 -101 -29 -120 -7
-34 -22 -85 -43 -145 -5 -16 -14 -48 -19 -70 -4 -22 -18 -65 -29 -95 -12 -30
-26 -69 -31 -87 -5 -18 -14 -35 -19 -38 -6 -4 -10 -16 -10 -29 0 -12 -7 -31
-15 -42 -24 -32 -18 -62 15 -79 16 -8 37 -15 47 -15 10 0 27 -6 38 -14 11 -7
40 -16 65 -19 25 -4 68 -11 95 -16 107 -21 277 -4 347 34 14 8 31 15 38 15 7
0 32 14 57 30 24 17 48 30 53 30 20 0 208 191 276 282 41 53 74 99 74 102 0 3
13 24 29 48 16 24 37 59 48 78 10 19 31 54 46 78 15 23 37 61 48 82 12 22 25
43 30 46 5 3 9 11 9 19 0 8 12 33 28 57 37 59 47 75 78 133 14 28 44 76 65
109 22 32 39 62 39 66 0 4 20 35 45 69 25 34 45 64 45 67 0 6 64 91 116 154
85 103 271 260 308 260 6 0 17 5 24 12 12 12 68 35 117 47 l30 8 -40 18 c-89
39 -113 52 -184 100 -67 45 -185 152 -252 230 -35 40 -149 193 -149 199 0 3
-20 34 -45 70 -25 37 -45 68 -45 71 0 3 -62 111 -101 175 -5 8 -20 38 -34 65
-15 28 -35 64 -45 80 -11 17 -22 36 -25 43 -3 6 -7 18 -10 25 -3 6 -14 26 -24
42 -26 40 -91 155 -91 160 0 2 -36 57 -80 122 -78 115 -96 139 -183 233 -40
44 -146 129 -177 143 -8 4 -35 18 -59 32 -24 14 -50 25 -58 25 -8 0 -26 6 -41
14 -33 17 -188 25 -302 17z"/>
<path d="M10750 8315 c-14 -7 -45 -21 -70 -30 -25 -10 -58 -23 -75 -30 -16 -8
-65 -27 -107 -44 -127 -51 -231 -92 -270 -109 -43 -17 -46 -32 -22 -89 33 -78
42 -99 59 -143 9 -25 23 -58 30 -75 7 -16 17 -43 24 -58 6 -15 18 -30 26 -34
15 -5 88 20 109 38 5 5 -1 31 -14 61 -33 75 -60 150 -60 166 0 7 12 17 28 23
15 7 37 16 50 22 29 14 55 0 63 -34 3 -13 13 -41 22 -61 20 -43 38 -47 91 -20
39 19 46 44 22 90 -7 15 -17 41 -20 59 -7 30 -5 32 40 53 27 11 54 19 62 18 7
-2 23 -25 34 -53 11 -27 26 -61 33 -75 7 -14 15 -37 19 -51 8 -35 29 -42 73
-24 59 25 62 30 47 75 -8 22 -18 48 -23 58 -5 9 -17 37 -26 62 -10 25 -23 59
-31 75 -7 17 -20 46 -28 67 -9 20 -16 43 -16 51 0 8 -7 18 -16 21 -20 8 -24 7
-54 -9z"/>
<path d="M2657 8264 c-3 -11 -13 -39 -23 -64 -39 -103 -86 -237 -93 -266 -10
-36 -4 -48 24 -57 11 -3 45 -15 75 -27 88 -34 131 -49 205 -75 39 -13 95 -34
125 -46 30 -11 66 -23 80 -27 14 -3 35 -11 47 -19 12 -8 32 -13 43 -11 21 3
25 10 60 108 5 14 25 70 46 125 51 142 52 150 18 168 -16 8 -41 17 -56 21 -35
8 -48 -11 -83 -122 -32 -97 -48 -107 -120 -72 -50 24 -52 28 -30 69 8 16 17
47 21 69 6 40 6 40 -37 60 -26 11 -50 16 -59 11 -8 -4 -27 -36 -41 -71 -14
-35 -32 -64 -40 -66 -8 -1 -36 7 -63 19 -55 24 -55 25 -6 146 45 109 40 125
-47 139 -34 5 -41 3 -46 -12z"/>
<path d="M10930 7775 c-25 -8 -74 -21 -110 -30 -36 -9 -88 -23 -116 -31 -28
-8 -59 -14 -69 -14 -9 0 -38 -6 -64 -14 -92 -29 -158 -46 -178 -46 -33 0 -47
-24 -34 -61 6 -18 11 -43 11 -55 0 -13 9 -33 19 -43 18 -18 23 -19 58 -7 41
15 115 34 175 46 27 5 41 3 49 -6 11 -14 3 -54 -11 -54 -5 0 -59 -30 -119 -66
-98 -58 -111 -69 -111 -93 0 -33 28 -119 41 -127 6 -3 24 5 42 19 18 13 37 26
42 28 6 2 49 30 97 62 48 31 91 57 95 57 4 0 26 -14 47 -30 34 -26 48 -30 102
-30 55 0 67 4 106 33 56 43 72 88 64 186 -3 41 -12 97 -20 125 -8 28 -20 71
-26 96 -12 45 -27 71 -39 69 -3 0 -26 -7 -51 -14z m-11 -194 c7 -5 15 -29 18
-53 5 -40 2 -47 -22 -66 -50 -40 -106 -19 -124 45 -12 41 2 60 54 72 53 12 58
12 74 2z"/>
<path d="M3007 7573 c-9 -26 -19 -67 -22 -90 -4 -22 -12 -49 -20 -59 -12 -17
-18 -17 -66 -6 -30 7 -85 20 -124 28 -38 9 -93 22 -121 30 -28 8 -59 14 -70
14 -10 0 -37 7 -59 15 -22 8 -54 14 -70 15 -29 0 -31 -3 -49 -66 -22 -76 -16
-95 30 -105 29 -7 101 -23 244 -54 41 -9 98 -23 125 -30 28 -7 73 -19 100 -26
28 -7 70 -13 94 -13 l44 -1 17 65 c10 36 25 101 35 145 9 44 22 95 27 114 13
41 -1 56 -58 66 l-42 6 -15 -48z"/>
<path d="M2454 7173 c-16 -8 -44 -36 -61 -61 -28 -42 -34 -62 -48 -178 -9 -72
-15 -146 -13 -164 4 -43 19 -47 208 -60 80 -5 179 -14 220 -19 115 -15 219
-16 233 -2 7 7 12 40 12 78 0 65 0 67 -30 74 -17 5 -73 12 -125 16 l-95 8 -5
95 c-6 119 -34 171 -112 211 -45 23 -139 24 -184 2z m155 -189 c22 -28 28 -83
11 -100 -12 -12 -138 0 -153 15 -11 11 8 75 30 96 8 8 32 15 53 15 30 0 43 -6
59 -26z"/>
<path d="M10745 6866 c-105 -17 -162 -44 -212 -100 -95 -108 -67 -301 55 -365
129 -68 333 -66 469 3 76 40 130 146 120 237 -15 122 -101 205 -233 223 -101
14 -121 14 -199 2z m284 -200 c29 -27 24 -73 -10 -98 -49 -37 -311 -53 -369
-23 -79 41 -54 126 41 138 19 2 98 4 175 3 126 -1 144 -3 163 -20z"/>
<path d="M2875 6563 c-33 -1 -148 -9 -255 -18 -107 -8 -215 -16 -240 -18 l-45
-2 -3 -95 c-4 -140 -9 -132 105 -153 54 -9 109 -17 123 -17 76 0 133 -43 73
-55 -16 -3 -50 -12 -78 -19 -27 -8 -83 -22 -123 -32 -45 -12 -74 -24 -76 -34
-2 -8 -1 -60 2 -115 l7 -100 68 -3 c38 -2 142 4 232 13 89 8 203 15 253 15
124 0 129 6 106 119 -5 22 -8 23 -57 17 -120 -14 -357 -19 -357 -8 0 7 12 14
28 17 15 3 50 12 77 19 28 8 79 22 115 31 36 10 88 24 115 33 28 8 56 16 63
18 15 4 16 68 2 95 -7 13 -21 19 -43 19 -18 0 -59 7 -92 15 -33 8 -73 14 -90
15 -27 0 -156 25 -195 37 -33 11 30 20 180 27 85 3 171 10 190 14 34 8 35 9
38 63 4 72 -10 110 -40 107 -13 -1 -50 -3 -83 -5z"/>
<path d="M10488 6262 c-23 -4 -30 -34 -26 -102 l3 -55 65 -12 c36 -7 88 -12
115 -13 75 -1 78 -4 70 -97 l-7 -80 52 -7 c67 -9 77 0 87 84 l8 65 59 -1 c64
-2 80 -13 71 -54 -13 -61 -17 -177 -7 -184 7 -4 33 -9 60 -13 l48 -5 17 98
c10 55 17 115 17 135 0 19 5 61 11 93 13 73 8 79 -79 87 -71 7 -185 20 -372
44 -151 19 -172 21 -192 17z"/>
<path d="M2963 5858 c-30 -15 -34 -30 -19 -75 59 -169 59 -175 3 -197 -23 -9
-50 -16 -60 -16 -19 0 -47 48 -47 82 0 29 -26 68 -45 68 -8 0 -33 -7 -56 -16
-45 -19 -44 -13 -19 -118 15 -60 5 -72 -65 -81 l-50 -7 -19 64 c-48 163 -48
163 -86 160 -45 -5 -80 -27 -80 -52 0 -11 6 -37 14 -57 7 -21 21 -67 31 -103
20 -77 44 -156 56 -187 10 -27 35 -29 99 -9 25 8 70 22 100 30 201 57 271 77
315 92 23 8 49 14 58 14 30 0 77 29 77 47 0 10 -6 35 -14 58 -7 22 -21 66 -30
98 -67 237 -58 217 -103 216 -21 0 -48 -5 -60 -11z"/>
<path d="M10325 5493 c-9 -26 -21 -58 -26 -70 -10 -27 10 -40 124 -77 84 -27
137 -52 137 -64 0 -5 -6 -16 -13 -26 -11 -15 -23 -16 -145 -6 -81 6 -139 7
-149 1 -24 -13 -64 -138 -49 -150 7 -6 84 -12 171 -13 l158 -3 13 -40 c40
-117 193 -152 283 -64 45 43 56 66 108 223 27 80 34 112 26 125 -9 14 -150 70
-229 90 -18 5 -37 12 -44 16 -7 4 -26 11 -44 16 -17 4 -76 24 -131 45 -55 20
-116 39 -136 41 -36 5 -37 4 -54 -44z m468 -282 c12 -12 -6 -67 -30 -93 -20
-22 -45 -23 -82 -3 -44 22 -51 84 -14 126 13 16 18 15 65 -2 29 -10 56 -23 61
-28z"/>
<path d="M3175 5255 c-16 -7 -48 -20 -70 -28 -50 -18 -108 -40 -160 -60 -22
-8 -74 -29 -115 -46 -74 -31 -110 -33 -110 -6 0 7 -9 33 -20 58 -20 44 -22 46
-53 40 -73 -13 -90 -42 -63 -105 18 -41 73 -180 93 -233 31 -82 47 -120 53
-127 3 -4 28 0 55 10 42 15 51 22 53 46 2 15 -4 39 -13 52 -9 14 -15 36 -13
50 3 26 21 36 138 79 127 47 266 102 310 123 28 14 34 22 32 42 -2 14 -9 34
-16 45 -7 11 -16 32 -20 48 -7 31 -31 34 -81 12z"/>
<path d="M10177 4970 c-51 -10 -103 -54 -139 -119 -26 -46 -31 -65 -30 -122 0
-53 5 -74 25 -106 35 -56 75 -96 127 -129 114 -72 180 -94 286 -94 74 0 84 3
122 30 58 41 96 98 112 163 24 101 -15 184 -128 270 -123 94 -253 131 -375
107z m176 -201 c135 -67 144 -72 172 -99 49 -46 23 -120 -42 -120 -38 0 -232
91 -299 140 -31 23 -53 60 -47 79 24 68 79 68 216 0z"/>
<path d="M2330 4693 c-17 -6 -141 -67 -180 -88 -70 -39 -188 -164 -237 -250
-34 -61 -53 -104 -53 -122 0 -11 -7 -37 -15 -57 -13 -30 -15 -74 -12 -239 3
-192 11 -269 42 -382 21 -79 37 -147 45 -190 4 -22 12 -53 18 -70 6 -16 18
-57 27 -90 9 -33 22 -80 30 -105 7 -25 20 -74 30 -110 9 -36 23 -88 31 -116 8
-28 14 -63 14 -78 0 -15 7 -43 15 -63 8 -19 15 -52 15 -73 0 -20 7 -59 15 -86
21 -68 21 -398 0 -434 -8 -14 -14 -37 -15 -52 0 -14 -6 -39 -14 -55 -13 -26
-57 -119 -64 -135 -2 -5 9 -2 25 6 87 44 159 64 278 79 146 18 379 8 459 -20
21 -7 55 -13 75 -13 20 0 56 -6 81 -14 25 -8 74 -22 110 -31 36 -9 85 -23 110
-31 25 -8 54 -14 66 -14 11 0 29 -7 40 -15 10 -8 32 -15 47 -15 16 0 38 -5 50
-12 12 -6 40 -15 62 -19 22 -4 54 -11 70 -17 47 -16 134 -40 205 -56 36 -8 99
-22 140 -32 107 -26 450 -27 497 -1 18 9 39 17 48 17 27 0 132 56 194 104 58
45 171 173 171 195 0 6 4 11 9 11 5 0 25 35 46 78 20 42 41 85 46 94 14 26 11
38 -9 38 -10 0 -27 7 -38 15 -10 8 -29 15 -40 15 -12 0 -27 7 -34 15 -7 8 -17
15 -24 15 -10 0 -53 20 -176 80 -25 12 -72 37 -105 56 -33 18 -69 38 -80 44
-11 6 -33 19 -50 30 -16 11 -37 23 -45 27 -8 4 -41 25 -75 47 -33 23 -68 45
-77 51 -51 30 -268 188 -299 217 -8 7 -37 31 -64 53 -28 22 -55 44 -61 50 -6
5 -39 35 -75 65 -143 123 -426 415 -534 550 -33 41 -66 81 -73 89 -29 31 -185
246 -217 299 -5 9 -22 33 -37 53 -16 20 -28 40 -28 43 0 4 -12 25 -27 49 -36
55 -43 67 -74 124 -15 26 -36 64 -47 83 -55 95 -182 363 -182 385 0 15 -21 18
-50 8z"/>
<path d="M11100 4686 c0 -23 -133 -304 -180 -381 -10 -16 -31 -52 -45 -80 -14
-27 -35 -63 -45 -80 -11 -16 -23 -37 -27 -45 -4 -8 -25 -41 -47 -75 -23 -33
-45 -68 -51 -77 -47 -79 -187 -265 -313 -418 -140 -168 -513 -535 -651 -639
-25 -19 -50 -40 -56 -47 -17 -20 -252 -189 -303 -219 -10 -5 -33 -21 -52 -35
-36 -26 -61 -42 -95 -60 -11 -6 -33 -19 -50 -29 -16 -11 -50 -31 -75 -44 -25
-14 -61 -34 -80 -45 -45 -27 -171 -87 -290 -140 -19 -8 -47 -21 -62 -29 -14
-7 -33 -13 -42 -13 -9 0 -16 -3 -16 -7 0 -14 25 -80 36 -94 5 -8 20 -34 33
-59 79 -150 198 -266 346 -337 105 -51 149 -58 355 -57 153 1 204 5 239 18 24
9 59 16 78 16 18 0 50 7 70 15 19 8 44 15 55 15 11 0 41 7 67 14 25 8 73 23
106 32 33 9 77 23 98 30 20 8 50 14 65 14 15 0 36 7 46 15 11 8 28 15 39 15
11 0 40 7 66 15 25 8 75 21 111 30 36 9 87 23 114 31 26 8 63 14 81 14 18 0
52 7 75 15 23 8 66 15 94 15 28 0 87 4 131 10 89 10 303 -7 342 -28 12 -7 31
-12 43 -12 21 0 66 -16 123 -45 15 -8 27 -12 27 -10 0 3 -36 80 -66 138 -8 16
-14 39 -14 51 0 12 -7 43 -15 68 -31 88 -11 445 31 578 8 25 14 58 14 74 0 15
7 49 15 75 8 25 22 75 31 111 18 72 40 149 56 195 5 17 13 46 18 65 17 77 32
136 42 165 6 17 14 50 18 75 4 25 12 58 19 73 6 16 11 43 11 60 0 18 7 54 15
81 21 68 21 423 0 481 -8 22 -15 45 -15 51 0 15 -36 91 -60 129 -11 17 -24 39
-29 51 -11 25 -167 172 -195 185 -12 5 -34 18 -51 29 -16 11 -37 22 -45 26 -8
3 -28 12 -45 20 -16 7 -45 17 -62 20 -26 5 -33 3 -33 -10z"/>
<path d="M3327 4590 c-48 -27 -124 -74 -169 -103 -46 -30 -109 -69 -140 -88
-65 -39 -69 -52 -33 -109 30 -48 50 -50 108 -13 23 15 50 32 59 38 82 48 246
151 258 160 20 17 68 27 90 20 10 -3 26 -17 35 -31 27 -41 6 -74 -83 -132 -77
-49 -237 -148 -270 -167 -48 -28 -72 -49 -72 -62 0 -22 70 -123 85 -123 12 0
64 29 160 90 13 8 52 33 87 54 196 122 230 152 247 223 15 59 -6 128 -59 199
-49 65 -101 94 -168 94 -39 0 -63 -9 -135 -50z"/>
<path d="M9819 4459 c-26 -18 -62 -55 -80 -82 -32 -46 -34 -55 -34 -131 0 -78
2 -84 33 -124 55 -69 68 -72 114 -23 21 23 38 50 38 60 0 9 -13 30 -30 46 -21
20 -30 38 -30 60 0 37 35 75 68 75 45 0 191 -92 273 -171 41 -40 49 -54 49
-84 0 -49 -31 -64 -100 -46 -27 7 -53 10 -59 7 -14 -9 -71 -98 -71 -111 0 -37
146 -68 214 -45 89 29 175 166 160 254 -11 67 -43 123 -108 188 -101 100 -201
149 -316 155 -71 4 -77 2 -121 -28z"/>
<path d="M3717 4140 c-158 -52 -297 -214 -297 -345 0 -35 20 -106 35 -125 7
-8 14 -20 16 -26 2 -7 37 -48 78 -93 48 -53 81 -81 95 -81 12 0 50 28 91 68
55 54 240 227 379 354 18 17 18 18 -23 67 -73 87 -165 165 -217 184 -60 21
-84 21 -157 -3z m181 -158 c12 -8 22 -20 22 -27 0 -6 -57 -65 -127 -131 -71
-65 -136 -126 -146 -136 -27 -27 -45 -22 -64 17 -15 30 -15 39 -2 77 18 55
135 172 204 204 51 24 71 24 113 -4z"/>
<path d="M9505 4078 c-63 -73 -63 -70 9 -139 54 -50 66 -69 75 -107 13 -62 2
-71 -51 -45 -88 44 -197 93 -205 93 -5 0 -31 -22 -57 -49 -52 -53 -55 -74 -12
-90 13 -6 73 -33 132 -61 60 -28 129 -61 154 -72 100 -44 103 -49 129 -195 11
-56 26 -93 40 -93 17 0 91 98 91 119 0 20 -25 109 -56 196 -17 50 -18 75 -2
75 6 0 46 -34 89 -75 42 -41 83 -75 91 -75 17 0 108 91 108 108 0 13 -2 14
-96 102 -32 31 -130 122 -216 203 -86 81 -163 147 -172 147 -8 0 -31 -19 -51
-42z"/>
<path d="M4190 3822 c0 -4 -10 -18 -23 -32 -22 -24 -116 -140 -167 -205 -14
-17 -41 -52 -61 -76 -20 -24 -60 -72 -88 -106 -28 -34 -51 -71 -51 -81 0 -20
65 -72 89 -72 16 0 60 49 133 147 29 39 62 76 74 81 23 11 24 24 -11 -153 -42
-212 -41 -202 -14 -231 13 -14 37 -35 52 -46 35 -25 31 -28 159 131 56 69 139
172 185 228 118 146 114 136 73 172 -50 44 -70 48 -94 19 -48 -56 -80 -96
-124 -155 -26 -34 -53 -62 -59 -63 -17 0 -16 46 1 123 58 254 58 252 6 295
-35 29 -80 43 -80 24z"/>
<path d="M9097 3684 c-31 -24 -57 -50 -57 -58 0 -12 33 -55 147 -194 47 -56
90 -111 162 -202 32 -41 69 -85 83 -97 l24 -23 62 51 c39 31 60 55 55 62 -4 7
-52 68 -108 137 -55 69 -141 175 -190 235 -49 61 -96 115 -105 122 -14 10 -26
4 -73 -33z"/>
<path d="M8830 3498 c-193 -124 -230 -151 -230 -166 0 -20 38 -80 58 -91 11
-6 24 -3 41 9 78 54 154 100 167 100 13 0 74 -83 74 -101 0 -4 -29 -27 -64
-50 l-65 -42 19 -36 c22 -41 44 -71 53 -71 3 0 33 18 66 40 33 22 62 40 65 40
12 0 66 -84 66 -101 0 -15 -108 -98 -129 -99 -16 -1 -51 -40 -51 -57 0 -27 49
-95 65 -89 7 2 86 52 175 111 184 121 177 105 100 219 -26 39 -87 132 -135
206 -49 74 -104 159 -123 188 -18 28 -39 52 -45 52 -7 0 -55 -28 -107 -62z"/>
<path d="M4611 3403 c-23 -38 -47 -77 -54 -88 -7 -11 -24 -36 -39 -56 -16 -20
-28 -39 -28 -42 0 -5 -119 -189 -161 -249 -10 -15 -19 -33 -19 -41 0 -17 105
-87 129 -86 9 0 32 26 52 57 20 31 79 122 131 202 167 257 178 275 178 286 0
17 -101 84 -126 84 -16 0 -33 -18 -63 -67z"/>
<path d="M4865 3288 c-15 -29 -41 -80 -59 -113 -49 -91 -145 -272 -184 -347
-41 -78 -40 -82 43 -123 60 -31 72 -28 98 24 8 14 29 54 46 89 18 35 39 66 46
68 14 6 69 -19 97 -43 19 -17 26 0 -72 -178 l-30 -54 61 -36 c33 -19 69 -35
79 -35 13 0 28 18 48 58 17 31 46 86 65 122 19 36 48 90 64 120 16 30 53 99
81 152 29 54 52 108 52 120 0 18 -13 29 -60 52 -33 15 -65 26 -72 23 -8 -2
-31 -38 -52 -78 -77 -151 -80 -153 -136 -122 -64 36 -64 38 21 190 44 79 40
93 -33 131 -35 18 -66 32 -70 32 -4 0 -19 -24 -33 -52z"/>
<path d="M8375 3239 c-114 -46 -165 -117 -165 -226 0 -60 4 -73 32 -115 45
-65 89 -81 242 -85 125 -3 146 -10 146 -49 0 -48 -54 -63 -136 -39 -25 8 -107
-67 -102 -93 5 -26 86 -61 144 -61 163 -2 292 167 225 297 -47 91 -120 123
-274 121 -87 -2 -102 0 -114 16 -19 27 -16 69 7 90 26 24 103 25 128 2 28 -26
43 -21 84 26 51 56 47 75 -21 110 -66 33 -125 35 -196 6z"/>
<path d="M6687 2882 c-20 -21 -37 -42 -37 -48 0 -6 -11 -21 -25 -34 -15 -14
-25 -35 -25 -51 0 -14 -7 -32 -15 -39 -11 -10 -15 -36 -15 -110 0 -88 3 -104
30 -161 17 -35 35 -71 40 -79 6 -8 14 -25 19 -37 13 -28 73 -73 99 -73 21 0
152 123 152 143 0 6 8 19 17 29 14 16 17 41 17 161 -1 181 0 175 -34 214 -17
19 -30 39 -30 47 0 7 -16 27 -36 44 -28 25 -45 32 -78 32 -35 0 -48 -6 -79
-38z"/>
<path d="M6275 2733 c-16 -8 -31 -17 -33 -18 -2 -2 -3 -38 -3 -82 0 -88 29
-188 66 -226 12 -12 24 -30 28 -39 3 -10 13 -18 21 -18 7 0 26 -16 42 -35 15
-19 34 -35 43 -35 8 0 22 -6 30 -14 23 -20 79 -36 122 -36 37 0 51 12 29 25
-26 16 -100 146 -100 175 0 18 -6 33 -15 36 -12 5 -15 28 -15 121 0 125 -7
142 -57 143 -12 0 -25 5 -28 10 -10 16 -97 11 -130 -7z"/>
<path d="M7130 2741 c-8 -6 -25 -11 -36 -11 -38 0 -48 -25 -46 -114 2 -58 -2
-89 -13 -110 -8 -15 -15 -46 -15 -67 0 -27 -5 -41 -19 -48 -10 -6 -31 -36 -46
-68 -16 -32 -34 -62 -42 -66 -7 -4 -13 -12 -13 -17 0 -13 67 -13 75 0 3 6 23
10 45 10 24 0 40 5 44 15 3 8 11 15 19 15 18 0 118 97 146 143 12 20 27 37 32
37 5 0 9 19 9 43 0 24 7 52 15 63 9 12 14 42 14 79 0 53 -3 62 -25 78 -29 22
-122 33 -144 18z"/>
<path d="M6095 2419 c-19 -21 -35 -48 -35 -59 0 -35 36 -93 92 -146 59 -58
104 -84 143 -84 14 0 28 -7 31 -15 8 -21 190 -22 220 -1 11 8 31 16 44 19 l25
4 -26 2 c-15 0 -32 8 -39 16 -8 9 -30 15 -59 15 -37 0 -54 7 -90 35 -24 19
-50 35 -57 35 -12 0 -82 79 -112 125 -7 11 -20 32 -29 46 -9 14 -29 31 -45 37
-25 9 -30 7 -63 -29z"/>
<path d="M7338 2433 c-8 -10 -23 -32 -31 -49 -9 -17 -23 -34 -32 -37 -8 -4
-15 -13 -15 -20 0 -42 -177 -157 -240 -157 -15 0 -33 -7 -40 -15 -7 -8 -24
-15 -39 -16 -26 0 -26 0 -3 -11 12 -6 22 -15 22 -20 0 -11 237 -10 245 1 3 5
35 24 72 42 70 34 143 92 143 114 0 7 14 29 30 50 17 21 30 43 30 49 0 21 -64
75 -96 82 -21 4 -34 1 -46 -13z"/>
<path d="M8465 2150 c-3 -5 -15 -10 -27 -10 -11 0 -32 -7 -46 -15 -31 -16
-165 -64 -202 -72 -14 -3 -39 -11 -57 -19 -17 -8 -37 -14 -45 -14 -7 0 -33 -6
-58 -14 -25 -8 -72 -21 -105 -29 -33 -8 -82 -21 -110 -27 -27 -7 -72 -16 -100
-20 -27 -4 -70 -12 -95 -18 -54 -13 -223 -36 -420 -57 -167 -18 -678 -20 -830
-5 -52 6 -140 15 -195 20 -110 10 -216 25 -285 42 -25 6 -70 14 -100 18 -30 4
-68 12 -85 18 -27 10 -67 19 -180 41 -22 4 -50 13 -62 19 -12 7 -34 12 -48 12
-15 0 -41 6 -58 14 -18 8 -43 16 -57 19 -14 3 -41 11 -60 17 -83 30 -117 43
-145 55 -59 26 -83 27 -99 3 -9 -12 -16 -32 -16 -43 0 -11 -7 -29 -15 -39 -8
-11 -15 -29 -15 -40 0 -12 -7 -39 -15 -61 -9 -25 -14 -80 -15 -149 0 -105 10
-157 45 -241 7 -16 16 -37 19 -45 14 -32 33 -59 86 -120 57 -66 227 -220 243
-220 5 0 26 -13 47 -30 21 -17 40 -30 43 -30 4 0 23 -12 44 -26 21 -14 47 -30
58 -35 11 -5 34 -18 50 -29 17 -10 53 -31 80 -45 28 -14 77 -41 110 -60 33
-18 83 -46 110 -60 28 -15 76 -41 107 -58 31 -18 75 -42 97 -54 22 -12 60 -35
83 -50 60 -39 81 -51 98 -59 8 -4 41 -27 72 -51 31 -24 59 -43 62 -43 9 0 34
-23 136 -123 98 -97 111 -111 123 -137 4 -8 16 -28 27 -45 28 -44 60 -115 60
-135 0 -9 3 -20 7 -23 9 -9 32 24 33 47 0 10 14 38 30 63 17 24 30 47 30 50 0
6 61 85 72 94 5 3 18 19 31 36 27 36 174 164 248 215 74 51 153 103 170 112 8
3 28 15 44 26 17 10 53 30 80 45 28 14 57 29 65 34 8 4 25 13 38 20 13 7 51
27 85 45 34 19 78 42 97 52 19 9 42 21 50 26 8 4 38 19 65 33 28 15 64 34 80
45 17 10 50 29 75 42 125 67 260 166 350 257 104 105 106 107 151 201 34 68
42 99 60 213 8 55 7 86 -6 155 -18 96 -40 173 -61 214 -8 14 -14 33 -14 42 0
18 -25 22 -35 6z"/>
</g>
</svg>
